<svg version="1.1" id="abl-logo" xmlns="http://www.w3.org/2000/svg" xmlns:xlink="http://www.w3.org/1999/xlink" x="0px" y="0px"
	 viewBox="0 0 133.92 69.14" style="enable-background:new 0 0 133.92 69.14;" xml:space="preserve">
<style type="text/css">
	.st0{fill-rule:evenodd;clip-rule:evenodd;fill:#1C7FBD;}
	.st1{filter:url(#Adobe_OpacityMaskFilter);}
	.st2{fill:url(#SVGID_2_);}
	.st3{mask:url(#SVGID_1_);fill-rule:evenodd;clip-rule:evenodd;fill:#0099DE;}
</style>
<g>
	<path class="st0" d="M76.81,32.21h5.48v10.2h-5.48V32.21z M67.74,46.05h7.95v4.63h-7.95V46.05z M83.55,45.87h7.82v4.85h-7.82V45.87
		z M54.22,45.54c0.86,13.17,11.81,23.59,25.2,23.59c13.39,0,24.34-10.42,25.2-23.59h-7.87c-0.93,8.59-8.21,15.28-17.05,15.28
		c-0.67,0-1.33-0.04-1.98-0.11v0.04c-8.02-0.8-14.39-7.18-15.17-15.2H54.22z M16.16,41.23c1.68,0,3.04,1.36,3.04,3.04
		c0,1.68-1.36,3.04-3.04,3.04c-1.68,0-3.04-1.36-3.04-3.04C13.12,42.59,14.48,41.23,16.16,41.23z M33.28,41.23
		c1.68,0,3.04,1.36,3.04,3.04c0,1.68-1.36,3.04-3.04,3.04c-1.68,0-3.04-1.36-3.04-3.04C30.24,42.59,31.6,41.23,33.28,41.23z
		 M50.4,42.04c-0.01-0.11-0.02-0.21-0.03-0.32h0.06l0-22.93h-8.21v6.26c-4.49-4.1-10.46-6.6-17.02-6.6
		C11.81,18.44,0.86,28.86,0,42.04h8.33c0.76-7.85,6.89-14.13,14.66-15.14v3.26c0,0.95,0.78,1.73,1.73,1.73h0
		c0.95,0,1.73-0.78,1.73-1.73V26.8c8.23,0.6,14.82,7.07,15.62,15.24H50.4z M24.72,55.91L24.72,55.91c0.95,0,1.73,0.78,1.73,1.73
		v2.96c7.83-0.57,14.18-6.46,15.46-14.08h8.54c-0.01,7.43-0.03,14.85-0.02,22.28h-8.21v-6.45c-3.84,3.51-8.78,5.85-14.23,6.45h-5.57
		C10.71,67.52,1.41,58.23,0.1,46.52h8.39c1.23,7.3,7.12,13.02,14.51,13.98v-2.86C22.99,56.69,23.77,55.91,24.72,55.91z M116.73,0
		l-8.23,7.15c0.05,11.31,0.01,22.61,0,33.91h8.54L116.73,0z M108.55,45.54c0.86,13.17,11.81,23.59,25.2,23.59c0.06,0,0.11,0,0.17,0
		v-8.31c-0.06,0-0.11,0-0.17,0c-8.8,0-16.03-6.71-16.87-15.29H108.55z M63.46,38.19c-0.33,0.92-0.58,1.88-0.75,2.87h-8.54
		c0.01-11.3,0.05-22.59,0-33.91L62.4,0v25.22c4.49-4.1,10.46-6.6,17.02-6.6c12.99,0,23.69,9.81,25.1,22.43h-7.87
		c-1.26-8.23-8.37-14.53-16.95-14.53C72.15,26.53,65.74,31.41,63.46,38.19z"/>
	<defs>
		<filter id="Adobe_OpacityMaskFilter" filterUnits="userSpaceOnUse" x="0" y="0" width="133.92" height="69.14">
			<feColorMatrix  type="matrix" values="1 0 0 0 0  0 1 0 0 0  0 0 1 0 0  0 0 0 1 0"/>
		</filter>
	</defs>
	<mask maskUnits="userSpaceOnUse" x="0" y="0" width="133.92" height="69.14" id="SVGID_1_">
		<g class="st1">
			
				<linearGradient id="SVGID_2_" gradientUnits="userSpaceOnUse" x1="-84.2838" y1="250.0896" x2="-75.7771" y2="396.559" gradientTransform="matrix(1 0 0 1 147.1059 -286.782)">
				<stop  offset="0" style="stop-color:#FFFFFF"/>
				<stop  offset="0.1073" style="stop-color:#FAFAFA"/>
				<stop  offset="0.2395" style="stop-color:#EBEBEB"/>
				<stop  offset="0.3848" style="stop-color:#D2D2D2"/>
				<stop  offset="0.5395" style="stop-color:#AFAFAF"/>
				<stop  offset="0.7016" style="stop-color:#838382"/>
				<stop  offset="0.8674" style="stop-color:#4D4D4C"/>
				<stop  offset="1" style="stop-color:#1D1D1B"/>
			</linearGradient>
			<rect y="0" class="st2" width="133.92" height="69.14"/>
		</g>
	</mask>
	<path class="st3" d="M76.81,32.21h5.48v10.2h-5.48V32.21z M67.74,46.05h7.95v4.63h-7.95V46.05z M83.55,45.87h7.82v4.85h-7.82V45.87
		z M54.22,45.54c0.86,13.17,11.81,23.59,25.2,23.59c13.39,0,24.34-10.42,25.2-23.59h-7.87c-0.93,8.59-8.21,15.28-17.05,15.28
		c-0.67,0-1.33-0.04-1.98-0.11v0.04c-8.02-0.8-14.39-7.18-15.17-15.2H54.22z M16.16,41.23c1.68,0,3.04,1.36,3.04,3.04
		c0,1.68-1.36,3.04-3.04,3.04c-1.68,0-3.04-1.36-3.04-3.04C13.12,42.59,14.48,41.23,16.16,41.23z M33.28,41.23
		c1.68,0,3.04,1.36,3.04,3.04c0,1.68-1.36,3.04-3.04,3.04c-1.68,0-3.04-1.36-3.04-3.04C30.24,42.59,31.6,41.23,33.28,41.23z
		 M50.4,42.04c-0.01-0.11-0.02-0.21-0.03-0.32h0.06l0-22.93h-8.21v6.26c-4.49-4.1-10.46-6.6-17.02-6.6
		C11.81,18.44,0.86,28.86,0,42.04h8.33c0.76-7.85,6.89-14.13,14.66-15.14v3.26c0,0.95,0.78,1.73,1.73,1.73h0
		c0.95,0,1.73-0.78,1.73-1.73V26.8c8.23,0.6,14.82,7.07,15.62,15.24H50.4z M24.72,55.91L24.72,55.91c0.95,0,1.73,0.78,1.73,1.73
		v2.96c7.83-0.57,14.18-6.46,15.46-14.08h8.54c-0.01,7.43-0.03,14.85-0.02,22.28h-8.21v-6.45c-3.84,3.51-8.78,5.85-14.23,6.45h-5.57
		C10.71,67.52,1.41,58.23,0.1,46.52h8.39c1.23,7.3,7.12,13.02,14.51,13.98v-2.86C22.99,56.69,23.77,55.91,24.72,55.91z M116.73,0
		l-8.23,7.15c0.05,11.31,0.01,22.61,0,33.91h8.54L116.73,0z M108.55,45.54c0.86,13.17,11.81,23.59,25.2,23.59c0.06,0,0.11,0,0.17,0
		v-8.31c-0.06,0-0.11,0-0.17,0c-8.8,0-16.03-6.71-16.87-15.29H108.55z M63.46,38.19c-0.33,0.92-0.58,1.88-0.75,2.87h-8.54
		c0.01-11.3,0.05-22.59,0-33.91L62.4,0v25.22c4.49-4.1,10.46-6.6,17.02-6.6c12.99,0,23.69,9.81,25.1,22.43h-7.87
		c-1.26-8.23-8.37-14.53-16.95-14.53C72.15,26.53,65.74,31.41,63.46,38.19z"/>
</g>
</svg>