<?xml version="1.0" encoding="UTF-8"?>
<svg id="Layer_1" data-name="Layer 1" xmlns="http://www.w3.org/2000/svg" viewBox="0 0 763.52 290.23">
  <defs>
    <style>
      .cls-1 {
        fill: none;
      }

      .cls-2 {
        fill: #f5b523;
      }
    </style>
  </defs>
  <polygon class="cls-1" points="761.3 0 763.52 0 763.52 290.23 0 290.23 0 288.01 761.25 288.05 761.3 0"/>
  <path d="M297.91,194.53c-10.86,5.4-22.65,14.6-38.09,10.92-11.82-2.82-24.44-9.45-31.31-23.09-8.46-16.81-8.15-37.04,1.13-53.67,6.7-12.01,18.3-19.14,29.79-20.42,14.28-1.59,25.92,3.09,35.55,13.42l.92-48.31c8.44-.48,16.43-.67,24.92.08l1.52,103.42c.11,7.19,11.03,19.21,2.45,26.36-9.64,8.03-21.38-2.55-26.89-8.71ZM296.14,161.2c.05-11.5-1.04-18.4-7.95-23.89-5.54-4.4-12.26-9.06-20.86-6.46-11.35,3.43-17.53,14.65-18.05,25.35-.52,10.72,5.81,21.77,17.15,25.98,13.81,5.12,29.63-5.54,29.7-20.98Z"/>
  <path d="M356.81,203.76c-13.38-4.46-20.38-16-20.53-27.64-.16-12.72,7.54-22.79,19.98-27.78,13.45-5.39,27.39-4.15,42-1.32,1.65-12.7-7.02-19.15-17.59-19.78-11.71-.7-20.87,4.42-30.94,10.15-4.06-5.34-6.96-10.68-8.27-17.3,17.31-11.97,39.25-15.47,59.56-9.3,32.95,10.01,20.64,50.45,24.94,66.68,1.79,6.76,9.47,19.88,1.78,25.69-8.61,6.5-23.48.76-25.54-10.66-12.54,10.82-28.3,16.95-45.39,11.26ZM388.19,183.6c8.17-3.99,12.26-10.65,9.89-19.48-10.57-5.85-36.41-5.43-36.82,9.8-.1,3.68,2.28,7.3,6.06,9.8,6.06,4,13.8,3.32,20.87-.13Z"/>
  <path d="M588.36,194.31c-18.87,16.11-47.17,15.57-65.49.52-24.29-19.95-23.41-59.31,2.15-77.74,17.58-12.68,43.1-12.66,60.67.04,24.94,18.03,26.82,56.56,2.67,77.18ZM577.51,148.67c-3.47-11.77-12.12-18.38-22.14-18.42-9.6-.04-17.46,6.08-21.36,15.9-6.1,15.38,2.07,36.31,20.4,37.17,17.61.82,27.82-18.64,23.09-34.64Z"/>
  <path class="cls-2" d="M144.1,204.86c-14.95-3.1-23.65-14.41-24.47-26.55-.95-14.12,6.65-25.09,20.39-30.16,13.01-4.8,26.26-3.94,40.66-1.05,2.5-10.42-3.96-17.77-13.36-19.54-12.34-2.33-23.12,2.88-34.1,9.56-4.43-4.49-7.46-10.28-8.44-17.12,16.97-11.8,38.28-14.98,58.01-9.51,34.59,9.59,21,50.62,25.78,66.86,1.95,6.61,10.34,19.33,2.32,25.62-8.14,6.38-22.52,1.1-25.94-9.79-12.7,9.22-25.13,14.94-40.85,11.68ZM181.57,164.29c-10.83-4.98-25.01-6.2-34.29,2.01-4.44,3.92-3.61,10.54-.61,14.32s7.56,6.17,13.59,5.84c12.54-.67,24.03-8.8,21.32-22.17Z"/>
  <path d="M494.66,179.83c5.01.17,7.37,14.26,5.44,18.99-7.69,6.21-22.16,7.7-32.11,6.26s-18.11-8.73-18.23-18.91l-.63-55.01c-2.62-2.24-7.89-1.61-11.31-2.14-1.56-6.39-1.28-12.61-.28-19.15,4.03-.72,7.49-.3,11.55-1.63l.79-28.38c8.36-.88,15.9-.8,24.63.12l1.45,28.58,18.02,1.24c.46,5.88,2.68,14.41-1.46,19.01l-17.16,2.01c.38,15.39-1.85,30.93,1.06,46.25,1.39,7.3,10.87,3.72,18.25,2.76Z"/>
</svg>