<svg xmlns="http://www.w3.org/2000/svg" id="Layer_2" data-name="Layer 2" viewBox="0 0 147.534 28.654"><defs><style>      .cls-1 {        fill: #fff;        stroke-width: 0px;      }    </style></defs><g id="Layer_1-2" data-name="Layer 1"><path class="cls-1" d="m24.521,28.654c-.779,0-1.122-.343-1.122-1.122V7.342c0-.779.343-1.121,1.122-1.121h4.83c.779,0,1.121.342,1.121,1.121v15.423h4.269v-5.047c0-.779.342-1.121,1.121-1.121h4.518c.779,0,1.122.342,1.122,1.121v9.814c0,.779-.343,1.122-1.122,1.122h-15.859Z"></path><path class="cls-1" d="m46.176,28.654c-.779,0-1.122-.343-1.122-1.122V7.342c0-.779.343-1.121,1.122-1.121h4.83c.778,0,1.121.342,1.121,1.121v15.423h4.269v-5.047c0-.779.342-1.121,1.121-1.121h4.518c.779,0,1.122.342,1.122,1.121v9.814c0,.779-.343,1.122-1.122,1.122h-15.859Z"></path><path class="cls-1" d="m67.27,28.654c-.779,0-1.122-.343-1.122-1.122v-3.645c0-.779.343-1.122,1.122-1.122h8.382c.529,0,.809-.405.809-.903,0-.717-.28-.997-.809-1.06l-4.674-.654c-2.929-.436-4.83-1.682-4.83-5.172v-3.271c0-3.552,2.399-5.484,6.45-5.484h8.724c.779,0,1.121.342,1.121,1.121v3.708c0,.779-.342,1.122-1.121,1.122h-7.26c-.529,0-.841.374-.841.934s.312.935.841.998l4.643.623c2.929.436,4.86,1.682,4.86,5.172v3.271c0,3.552-2.43,5.484-6.449,5.484h-9.846Z"></path><path class="cls-1" d="m88.084,28.654c-.779,0-1.122-.343-1.122-1.122V7.342c0-.779.343-1.121,1.122-1.121h13.896c.78,0,1.122.342,1.122,1.121v3.708c0,.779-.342,1.122-1.122,1.122h-7.945v3.241h5.421c.78,0,1.122.342,1.122,1.121v3.738c0,.78-.342,1.122-1.122,1.122h-5.421v6.138c0,.779-.342,1.122-1.121,1.122h-4.83Z"></path><path class="cls-1" d="m134.915,15.817h2.337c1.09,0,1.371-.624,1.371-1.464v-1.06c0-.841-.281-1.464-1.371-1.464h-2.337v3.988Zm-5.92,12.837c-.78,0-1.122-.343-1.122-1.122V7.342c0-.779.342-1.121,1.122-1.121h10.375c4.674,0,6.138,2.118,6.138,5.203v1.433c0,1.745-.436,2.991-1.744,3.552,2.274.249,3.77,1.901,3.77,4.518v6.605c0,.779-.343,1.122-1.122,1.122h-4.83c-.779,0-1.121-.343-1.121-1.122v-4.768c0-.933-.312-1.338-1.184-1.338h-4.362v6.106c0,.779-.343,1.122-1.122,1.122h-4.798Z"></path><path class="cls-1" d="m112.409,23.363c0-1.103.893-1.996,1.996-1.996s1.997.893,1.997,1.996-.894,1.996-1.997,1.996-1.996-.893-1.996-1.996"></path><path class="cls-1" d="m115.14,1.996c0-1.103.893-1.996,1.996-1.996s1.996.893,1.996,1.996-.893,1.996-1.996,1.996-1.996-.893-1.996-1.996"></path><path class="cls-1" d="m109.677,1.996c0-1.103.893-1.996,1.996-1.996s1.997.893,1.997,1.996-.894,1.996-1.997,1.996-1.996-.893-1.996-1.996"></path><path class="cls-1" d="m7.79,23.363c0-1.103.893-1.996,1.996-1.996s1.997.893,1.997,1.996-.894,1.996-1.997,1.996-1.996-.893-1.996-1.996"></path><path class="cls-1" d="m114.782,12.235c.25,0,.436.156.592.529l1.776,10.404v4.362c0,.779.374,1.122,1.215,1.122h4.705c.779,0,1.122-.343,1.122-1.122v-8.225c0-1.243-.374-2.802-1.215-4.982l-2.711-7.074c-.249-.716-.748-1.028-1.558-1.028h-8.605c-.81,0-1.309.312-1.558,1.028l-2.711,7.074c-.841,2.18-1.215,3.739-1.215,4.982v8.225c0,.779.342,1.122,1.122,1.122h4.704c.842,0,1.216-.343,1.216-1.122v-4.362l1.776-10.404c.155-.373.342-.529.591-.529h.754Z"></path><path class="cls-1" d="m10.163,12.235c.25,0,.436.156.592.529l1.776,10.404v4.362c0,.779.374,1.122,1.215,1.122h4.705c.779,0,1.122-.343,1.122-1.122v-8.225c0-1.243-.375-2.802-1.215-4.982l-2.711-7.074c-.25-.716-.748-1.028-1.558-1.028H5.484c-.81,0-1.309.312-1.558,1.028l-2.711,7.074c-.841,2.18-1.215,3.739-1.215,4.982v8.225c0,.779.343,1.122,1.122,1.122h4.704c.842,0,1.216-.343,1.216-1.122v-4.362l1.776-10.404c.155-.373.342-.529.592-.529h.753Z"></path></g></svg>