<svg xmlns="http://www.w3.org/2000/svg" viewBox="0 0 752.47 126"><title>logo</title><rect x="160.09" y="5.18" width="36.65" height="116.13" style="fill:#231f20"/><path d="M288.48,50.71c57.85-.93,64.34,6.81,64.34,33.45,0,19.2,1.16,38.09-75.48,38.09-44.36,0-72.88-.62-72.88-38.71h38.71c.26,16.22,11.4,13.32,34.16,13.32,21.83,0,36.87-.93,36.87-10.68,0-10.06-10.39-9.91-32.23-10.84l-10.22-.46c-49.89.39-67.07-1.86-67.07-35.15S231.81,4.25,277.33,4.25c38.09,0,70.61.46,70.61,32.52v4.8H309.23c.84-17.27-13.31-11.92-31.89-11.92-25.08,0-34.89-2.41-35,9.91-.1,9.29,14.58,9.6,26.89,10.22Z" style="fill:#231f20"/><polygon points="395.99 92.41 473.58 92.41 473.58 121.32 358.35 121.32 358.35 5.18 395.99 5.18 395.99 92.41" style="fill:#231f20"/><polygon points="701.35 5.18 662.87 52.72 624.79 5.18 479.35 5.18 479.35 121.32 606.63 121.32 606.63 95.92 514.04 95.92 514.04 73.31 600.13 73.31 600.13 51.79 514.04 51.79 514.04 30.58 604.17 30.58 645.14 80.59 645.14 121.32 678.85 121.32 678.85 80.59 743.47 5.18 701.35 5.18" style="fill:#231f20"/><path d="M123.68,62.94V61.7c23-2.48,27.41-12.08,27.41-26.79,0-25.39-20.44-29.73-55-29.73H4.53V121.32H97c36.93,0,56.9-3.87,56.9-32.36C153.87,74.4,149.46,64,123.68,62.94ZM43.14,31.56H96.86c13,.31,14.63,2,14.63,8.93,0,9.29-3.95,10.17-20.21,10.17H43.14ZM92.91,94.94H43.14V74.14h50.7c15.1,0,20.44.41,20.44,10C114.28,93.6,108,94.94,92.91,94.94Z" style="fill:#231f20"/></svg>