<svg xmlns="http://www.w3.org/2000/svg" id="Group_3" viewBox="0 0 88.2 29.2"><defs><style>      .st0 {        fill: #fff;      }    </style></defs><path id="Path_36" class="st0" d="M60.8,15.4l-3.5-.3c-3.4-.3-3.9-1.7-3.9-3.2,0-3.3,3.1-3.8,4.9-3.8,2.1,0,4.1.6,5.7,1.8l.4.3,2.3-2.4-.5-.4c-2.3-1.7-5-2.6-7.9-2.5-5,0-8.3,2.8-8.3,7s1.2,6,7,6.5l3.6.3c3.2.3,3.6,1.8,3.6,3.2,0,2.7-2,4-5.9,4s-5.1-.8-6.7-2.6l-.4-.4-2.3,2.5.4.4c2.3,2.3,5.2,3.4,9.1,3.4,5.6,0,9.2-2.9,9.2-7.3s-3.6-6.2-6.8-6.5"></path><path id="Path_37" class="st0" d="M81.4,15.4l-3.5-.3c-3.4-.3-3.9-1.7-3.9-3.2,0-3.3,3.1-3.8,5-3.8,2.1,0,4.1.6,5.7,1.8l.4.3,2.3-2.4-.5-.4c-2.3-1.7-5-2.6-7.9-2.5-5,0-8.3,2.8-8.3,7s1.2,6,7,6.5l3.6.3c2.6.3,3.6,1.2,3.6,3.2s-2,4-5.9,4-5.1-.8-6.7-2.6l-.4-.4-2.4,2.5.4.4c2.3,2.3,5.2,3.4,9.1,3.4,5.6,0,9.2-2.9,9.2-7.3s-3.6-6.2-6.8-6.5"></path><path id="Path_38" class="st0" d="M36.6,4.8c-6.4,0-11.5,5.5-11.5,12.2s5.2,12.2,11.5,12.2,11.5-5.5,11.5-12.2-5.2-12.2-11.5-12.2M36.6,25.8c-4.8-.1-8.5-4.1-8.4-8.8-.2-4.6,3.4-8.6,8-8.7s8.6,3.4,8.7,8c0,.2,0,.5,0,.7.1,4.8-3.6,8.7-8.4,8.8"></path><path id="Path_39" class="st0" d="M11.5,4.8c-3.1,0-6,1.3-8.1,3.6V0H0v17C0,23.7,5.2,29.1,11.5,29.1s11.5-5.5,11.5-12.2-5.2-12.2-11.5-12.2M19.9,17c.2,4.6-3.3,8.6-8,8.8-4.6.2-8.6-3.3-8.8-8,0-.3,0-.6,0-.9-.2-4.6,3.3-8.6,8-8.8,4.6-.2,8.6,3.3,8.8,8,0,.3,0,.6,0,.9"></path></svg>