<?xml version="1.0" encoding="UTF-8"?>
<svg id="Layer_1" data-name="Layer 1" xmlns="http://www.w3.org/2000/svg" viewBox="0 0 450.36 459.02">
  <defs>
    <style>
      .cls-1 {
        fill: #fff;
      }
    </style>
  </defs>
  <path d="M448.2,0v456.86s-448.2,0-448.2,0V0h448.2ZM64.56,62.58c0-6.12,7.2-10.98,11.92-10.98s11.98,4.63,11.98,11.15l.04,246.03c0,3.02,4,6.54,5.52,5.83s3.28-4.06,3.28-6.46l-.21-247.62c0-11-14.35-19.07-22.73-18.85l-14.95,7.63c-4.28-2.55-10.95-7.35-14.86-7.17-13.66.64-23.08,12.52-23.07,27.16l.1,240.31c0,1.82,3.79,4.79,5.31,5.08s5.15-2.91,5.15-4.6l.03-247.35c0-6.6,6.84-11.16,11.93-10.99,4.29.14,11.66,5.24,11.67,11.07l.04,249.46c2.55.58,6.14.72,8.83.31l.03-250ZM267.45,267.55c-3.27-5.92-11.11-10.59-16.81-10.9-5.25-.29-11.31,3.28-18.14,6.92l-.05-216.96c0-2.68-3.47-6.01-5.03-6.09s-4.46,3.18-4.46,5.13l.19,267.16c.04,2.34,8.71-1.5,11.03-1.12,4.59.75,12.86,5.06,17.45,3.91,19.98-5.01,25.2-31.05,15.81-48.06ZM370.22,310.95l-.05-267.14c0-3.04-10.24-3.85-10.24-.83v270.76c2.42,1.45,10.28.73,10.28-2.78ZM186.27,290.04c1.28-9.3-2.51-20.97-9.26-27-8.79-7.86-20.57-7.89-29.84-2.41-7.97,4.72-11.96,15.6-11.96,25.76,0,15.4,9.08,27.81,23.07,28.7s25.6-7.72,27.99-25.05ZM319.99,311.81l.12-50.56-4.17-3.14c-1.03-.77-5.86,2.26-5.85,3.74l.27,51.52c2.22,1.74,9.61.7,9.62-1.56ZM420.33,312.2l-.13-51.47c-.68-2.56-10.18-2.57-10.62.04l.32,51.19c.02,2.94,10.43,3.32,10.42.23ZM41.05,415c12.84,3.63,24.14-8.78,25.66-19.72,1.59-11.42-4.98-23.56-17.56-26.17-12.65-2.63-23.46,6.8-26.06,19.06-2.09,9.82,4.62,23.06,17.97,26.84ZM260.47,371.94c-1.98-1.55-3.55-3.08-4.05-2.31-.34.51-2.35,3.74-2.36,4.35l-.14,35.05c0,1.46,2.73,5.92,3.76,5.12l2.87-2.22-.08-39.99ZM320.73,408.95c-7.27-1.91-10.66-8.61-10.8-16.72-.16-8.96,3.99-16.24,12.33-17.62,7.05-1.17,12.02,3,20.28,9.77,2.41-10.76-11.18-17.64-21.15-15.27-12.53,2.97-19.02,14.68-17.53,26.4,1.35,10.59,10.42,21.55,23.88,20.23,2.81-.28,19.84-7.93,14.92-18.36-2.4-5.09-5.2,15.98-21.93,11.58ZM138.19,391.34l-21.69-2.8.44-13.34c10.16-.48,16.39.31,25.09-2.75-12.11-2.24-21.53-2.01-32.3-1.22l.59,43.4c10.38,3.85,3.04-19.94,7.34-20.1l7.35-.28c5.78-.22,9.9-.55,13.2-2.92ZM209.9,391.71l-21.61-3.5.02-12.96c10.32-.5,16.02-.04,24.87-2.6-11.63-2.63-19.85-2.23-31.59-1.27l-.3,37.14c-.01,1.36,2.6,6.06,3.52,5.45l2.67-1.76.51-17.57c8.3-.63,13.34-.54,21.92-2.93ZM418.31,390.99l-23.43-2.42c-.56-3.23-.48-11.01.22-13.42,9.73-.58,16.31.96,24.9-3.07-11.85-1.24-20.5-1.37-32.24-1.51v43.3s32.51-.07,32.51-.07c2.59-10.74-24.7-2.02-25.76-7.63-.46-2.41-.41-7.99.06-10.43.94-4.94,22.88,2.21,23.74-4.74Z"/>
  <polygon class="cls-1" points="448.2 0 450.36 0 450.36 459.02 0 459.02 0 456.86 448.2 456.86 448.2 0"/>
  <path class="cls-1" d="M64.56,62.58l-.03,250c-2.69.41-6.28.27-8.83-.31l-.04-249.46c0-5.83-7.37-10.93-11.67-11.07-5.09-.17-11.93,4.39-11.93,10.99l-.03,247.35c0,1.69-3.63,4.9-5.15,4.6s-5.31-3.26-5.31-5.08l-.1-240.31c0-14.64,9.41-26.52,23.07-27.16,3.91-.18,10.58,4.62,14.86,7.17l14.95-7.63c8.38-.22,22.72,7.86,22.73,18.85l.21,247.62c0,2.4-1.81,5.77-3.28,6.46s-5.52-2.8-5.52-5.83l-.04-246.03c0-6.53-7.49-11.15-11.98-11.15-4.72,0-11.92,4.87-11.92,10.98Z"/>
  <path class="cls-1" d="M267.45,267.55c9.39,17.01,4.17,43.05-15.81,48.06-4.59,1.15-12.86-3.16-17.45-3.91-2.32-.38-10.99,3.46-11.03,1.12l-.19-267.16c0-1.95,2.89-5.21,4.46-5.13s5.03,3.41,5.03,6.09l.05,216.96c6.83-3.64,12.88-7.21,18.14-6.92,5.7.31,13.55,4.99,16.81,10.9ZM254.33,305.53c12.74-10.02,9.52-33.21.76-38.44-3.79-2.26-12.32-2.7-15.53.17-9.57,8.54-10.81,30.02-.55,37.89,3.07,2.35,11.62,3.3,15.33.38Z"/>
  <path class="cls-1" d="M370.22,310.95c0,3.51-7.86,4.23-10.28,2.78V42.97c0-3.02,10.23-2.2,10.23.83l.05,267.14Z"/>
  <path class="cls-1" d="M186.27,290.04c-2.39,17.33-13.52,25.97-27.99,25.05s-23.06-13.31-23.07-28.7c0-10.15,3.99-21.04,11.96-25.76,9.27-5.48,21.05-5.45,29.84,2.41,6.75,6.03,10.54,17.7,9.26,27ZM175.1,274.85c-1.9-4.65-7.13-9.26-10.8-9.92-4.27-.77-12.32,1.51-14.69,4.68-7.06,9.48-7.51,20.86-1.61,30.8,2.61,4.4,9.85,7.71,14.5,7.41,11.16-.73,18.48-18.59,12.6-32.97Z"/>
  <path class="cls-1" d="M41.05,415c-13.35-3.77-20.05-17.02-17.97-26.84,2.6-12.26,13.41-21.68,26.06-19.06,12.58,2.61,19.16,14.75,17.56,26.17-1.53,10.94-12.82,23.35-25.66,19.72ZM60.9,392.26c-.05-10.96-6.1-18.14-16.64-17.88-8.97.22-15.17,7.56-15.05,17.94.11,9.64,6.46,17.25,15.19,17.21,9.76-.05,16.55-7.14,16.5-17.27Z"/>
  <path class="cls-1" d="M418.31,390.99c-.86,6.95-22.8-.2-23.74,4.74-.47,2.44-.52,8.02-.06,10.43,1.06,5.61,28.35-3.11,25.76,7.63l-32.52.07v-43.3c11.75.14,20.4.27,32.25,1.51-8.58,4.03-15.17,2.49-24.9,3.07-.71,2.42-.78,10.2-.22,13.42l23.43,2.42Z"/>
  <path class="cls-1" d="M320.73,408.95c16.72,4.4,19.53-16.67,21.93-11.58,4.91,10.43-12.11,18.09-14.92,18.36-13.45,1.32-22.53-9.64-23.88-20.23-1.49-11.72,5-23.42,17.53-26.4,9.97-2.37,23.57,4.51,21.15,15.27-8.26-6.77-13.23-10.94-20.28-9.77-8.34,1.38-12.48,8.66-12.33,17.62.14,8.11,3.53,14.81,10.8,16.72Z"/>
  <path class="cls-1" d="M420.33,312.2c0,3.09-10.41,2.71-10.42-.23l-.32-51.19c.44-2.61,9.94-2.61,10.62-.04l.13,51.47Z"/>
  <path class="cls-1" d="M319.99,311.81c0,2.25-7.4,3.29-9.62,1.56l-.27-51.52c0-1.48,4.82-4.52,5.85-3.74l4.17,3.14-.12,50.56Z"/>
  <path class="cls-1" d="M138.19,391.34c-3.29,2.37-7.41,2.7-13.2,2.92l-7.35.28c-4.29.16,3.05,23.95-7.34,20.1l-.59-43.4c10.77-.79,20.18-1.02,32.3,1.22-8.7,3.06-14.93,2.26-25.09,2.75l-.44,13.34,21.69,2.8Z"/>
  <path class="cls-1" d="M209.9,391.71c-8.58,2.4-13.61,2.3-21.92,2.93l-.51,17.57-2.67,1.76c-.92.6-3.53-4.09-3.52-5.45l.3-37.14c11.74-.96,19.96-1.36,31.59,1.27-8.85,2.56-14.55,2.1-24.87,2.6l-.02,12.96,21.61,3.5Z"/>
  <path class="cls-1" d="M260.47,371.94l.08,39.99-2.87,2.22c-1.03.79-3.77-3.66-3.76-5.12l.14-35.05c0-.6,2.02-3.83,2.36-4.35.5-.77,2.07.76,4.05,2.31Z"/>
  <path d="M254.33,305.53c-3.71,2.92-12.26,1.97-15.33-.38-10.26-7.87-9.02-29.35.55-37.89,3.22-2.87,11.74-2.43,15.53-.17,8.76,5.23,11.98,28.41-.76,38.44Z"/>
  <path d="M175.1,274.85c5.88,14.38-1.44,32.24-12.6,32.97-4.65.3-11.9-3.01-14.5-7.41-5.89-9.93-5.45-21.32,1.61-30.8,2.36-3.17,10.42-5.46,14.69-4.68,3.67.67,8.9,5.27,10.8,9.92Z"/>
  <path d="M60.9,392.26c.05,10.13-6.75,17.22-16.5,17.27-8.73.05-15.08-7.56-15.19-17.21-.12-10.38,6.07-17.72,15.05-17.94,10.54-.26,16.59,6.92,16.64,17.88Z"/>
</svg>