<svg xmlns="http://www.w3.org/2000/svg" id="Layer_1" version="1.1" viewBox="0 0 202 40"><defs><clipPath id="clippath"><path d="M.3 0h201.5v40H.3z" class="st2"/></clipPath><clipPath id="clippath-1"><path d="M.3 0h201.5v40H.3z" class="st2"/></clipPath><clipPath id="clippath-2"><path d="M.3 0h201.5v40H.3z" class="st2"/></clipPath><clipPath id="clippath-3"><path d="M.3 0h201.5v40H.3z" class="st2"/></clipPath><clipPath id="clippath-4"><path d="M.3 0h201.5v40H.3z" class="st2"/></clipPath><clipPath id="clippath-5"><path d="M.3 0h201.5v40H.3z" class="st2"/></clipPath><clipPath id="clippath-6"><path d="M.3 0h201.5v40H.3z" class="st2"/></clipPath><style>.st2{fill:none}.st6{fill:#585959}</style></defs><path d="M47.4 38.7c-3.1-.3-3.1-.5-3.1-.9v-15c0-3.7-.6-6.3-2-7.7-1.3-1.2-2.7-1.9-4.8-1.9-4.2 0-7.5 2.9-10 5.3h-.2c-.2-1.5-.9-2.6-1.7-3.5-1.2-1.1-2.7-1.9-4.8-1.9-4.2 0-7.5 3-9.8 5.2h-.1l.2-5.1-10.8 3v.2l1.3.3c2.1.5 2.5 1 2.5 4.6v16.4c0 .7-.7.8-2.6.9H.6l-.2.4h14.4v-.4h-1c-2.5-.2-2.7-.4-2.7-.8V19c1.3-.9 2.8-1.6 4.8-1.6 3.3 0 5 1.3 5 5v15.4c0 .5-.3.8-2.3.9h-1.1l-.2.4h14.2l-.2-.4h-.9c-2.7-.3-2.7-.4-2.7-.8V19.5c.5-1.2 2.7-2.1 4.8-2.1 3.4 0 4.9 1.3 4.9 5v15.4c0 .5-.1.8-2.3.9H34l-.2.4h14.4l-.2-.4h-.7Z" class="st6" style="clip-path:url(#clippath)"/><path d="M63.9 39.4c-1.6 0-2.7-.5-3.8-1.5C58.2 36 57 32.3 57 26.1s2.2-12.4 6.9-12.4 2.8.6 3.7 1.5c1.9 1.8 3.1 5.6 3.1 11.7 0 7-2.4 12.5-6.9 12.5m.3-26.2c-8.7 0-14.7 6-14.7 13.4S55.1 40 63.9 40s14.7-6 14.7-13.5-5.7-13.2-14.5-13.2" class="st6" style="clip-path:url(#clippath-1)"/><path d="M107.4 14.1H96.6l.2.4h.9c4 .5 4.8 1.5 2.3 7.5l-4 9.9-6.3-14.6c-.9-1.9-.3-2.6 2.1-2.8h1l.1-.4H77.5l.2.4h1c2 .2 2.3.7 3.5 3.4l9.7 21.9h1.5l7-17.4c2.8-6.7 2.9-7.4 5.8-7.8h.9c0-.1.2-.5.2-.5Z" class="st6" style="clip-path:url(#clippath-2)"/><path d="M119.9 13.8c3.4 0 4.3 4.1 4.3 7.7h-10.1c.6-4.5 3.1-7.7 5.8-7.7m3.2 22.1c-5.5 0-9.3-4.3-9.3-10.8s0-2.1.1-2.8c1.7 0 16.9.2 16.9.2 0-.4.1-.6.1-1 0-4.2-3.4-8.3-10.4-8.3s-14.1 6.1-14.1 14 5.4 12.9 12.7 12.9 9.7-3.1 12.3-8.5l-.4-.2c-1.9 3.3-4.4 4.6-7.9 4.6" class="st6" style="clip-path:url(#clippath-3)"/><path d="M164.5 38.7c-3-.3-3.1-.5-3.1-.9V21.6c0-2.6-.6-5.1-2-6.4-1.3-1.2-2.8-1.9-4.8-1.9-4.2 0-7.9 3.1-10.5 5.2h-.1l.2-5.1-10.9 2.8v.2l1.3.3c2.1.5 2.5 1 2.5 4.6v16.4c0 .7-.7.8-2.6.9h-.9l-.2.4h14.3v-.4h-1c-2.4-.2-2.7-.4-2.7-.8V19.2c1.3-1 3-1.8 5.4-1.8s5.1 1.3 5.1 5v15.4c0 .5-.1.8-2.3.9h-1.1l-.2.4h14.4l-.2-.4h-.7Z" class="st6" style="clip-path:url(#clippath-4)"/><path d="M190.9 39.1h10.9l-.2-.4h-.7c-2.7-.3-3.1-.4-3.1-.9V13.4l-.6.2c-1.1.2-3.9.5-11.5.5h-8.6V8h-.2l-11.5 9.1h4.9l-.3 15.4c0 5 2.3 7.3 7.1 7.3s6.5-2.1 9.3-4.8l-.2-.2c-1.2 1-2.7 1.8-5.1 1.8s-4.5-1.5-4.5-4.8l.3-14.8h9.5c1.6.1 4.3.9 4.3 4.1v18.1Z" class="st6" style="clip-path:url(#clippath-5)"/><g style="clip-path:url(#clippath-6)"><path d="M189.7 4.2c0-2 1.5-4.2 4.3-4.2s4.3 2.2 4.3 4.2-1.5 4.2-4.3 4.2-4.3-2.2-4.3-4.2" style="fill:#e3057a"/></g></svg>