<?xml version="1.0" encoding="utf-8"?>
<!-- Generator: Adobe Illustrator 26.3.1, SVG Export Plug-In . SVG Version: 6.00 Build 0)  -->
<svg version="1.1" id="Layer_1" xmlns="http://www.w3.org/2000/svg" xmlns:xlink="http://www.w3.org/1999/xlink" x="0px" y="0px"
	 viewBox="0 0 175.7 24.42" style="enable-background:new 0 0 175.7 24.42;" xml:space="preserve">
<style type="text/css">
	.st0{fill:#6D6B70;}
</style>
<g>
	<path class="st0" d="M20.2,6.77c1.69,0,2.38,0.8,2.38,2.53c0,2.11-0.54,2.94-2.38,2.94h-9.72V6.77 M20.44,1.39H3.86V23h6.63v-5.38
		h12.33c4.79,0,6.48-2.32,6.48-8.12c0-3.74-0.8-6-3.12-7.22C24.81,1.57,22.97,1.39,20.44,1.39z"/>
	<path class="st0" d="M20.2,6.77c1.69,0,2.38,0.8,2.38,2.53c0,2.11-0.54,2.94-2.38,2.94h-9.72V6.77H20.2z M20.44,1.39H3.86V23h6.63
		v-5.38h12.33c4.79,0,6.48-2.32,6.48-8.12c0-3.74-0.8-6-3.12-7.22C24.81,1.57,22.97,1.39,20.44,1.39z"/>
	<polyline class="st0" points="54.21,17.77 54.21,23 33.22,23 33.22,1.39 39.82,1.39 39.82,17.77 	"/>
	<polygon class="st0" points="54.21,17.77 54.21,23 33.22,23 33.22,1.39 39.82,1.39 39.82,17.77 	"/>
	<polyline class="st0" points="63.36,6.65 63.36,9.92 79.38,9.92 79.38,14.47 63.36,14.47 63.36,17.77 80.63,17.77 80.63,23 
		56.76,23 56.76,1.39 80.36,1.39 80.36,6.65 	"/>
	<polygon class="st0" points="63.36,6.65 63.36,9.92 79.38,9.92 79.38,14.47 63.36,14.47 63.36,17.77 80.63,17.77 80.63,23 
		56.76,23 56.76,1.39 80.36,1.39 80.36,6.65 	"/>
	<path class="st0" d="M101.4,6.71c3.3,0,4.87,1.13,4.87,3.69v3.8c0,2.44-1.25,3.54-4.04,3.54H91.06V6.71 M103.43,1.39H84.46V23h20.9
		c5.23,0,7.52-2.14,7.52-6.93V8.64C112.88,3.47,109.84,1.39,103.43,1.39z"/>
	<path class="st0" d="M101.4,6.71c3.3,0,4.87,1.13,4.87,3.69v3.8c0,2.44-1.25,3.54-4.04,3.54H91.06V6.71H101.4z M103.43,1.39H84.46
		V23h20.9c5.23,0,7.52-2.14,7.52-6.93V8.64C112.88,3.47,109.84,1.39,103.43,1.39z"/>
	<path class="st0" d="M137.19,9.12c0-2.38-1.52-2.59-4.97-2.59h-3.83c-4.28,0-5.29,0.56-5.29,4.25v3c0,3.39,1.46,4.07,5.32,4.07h3.8
		c3.45,0,4.99-0.45,4.99-2.29c0-0.21-0.03-0.42-0.06-0.65h-7.76v-4.37h14.62v7.1c0,4.37-3.21,5.62-10.11,5.62h-7.34
		c-3.42,0-5.86-0.15-7.73-1.6c-1.81-1.43-2.5-3.39-2.5-6.33V9.45c0-6.48,2.82-8.32,10.2-8.32h7.37c3.78,0,6.36,0.18,7.94,1.4
		c1.4,1.07,1.99,2.85,1.99,5.44c0,0.39,0,0.8-0.03,1.22h-6.63"/>
	<path class="st0" d="M137.19,9.12c0-2.38-1.52-2.59-4.97-2.59h-3.83c-4.28,0-5.29,0.56-5.29,4.25v3c0,3.39,1.46,4.07,5.32,4.07h3.8
		c3.45,0,4.99-0.45,4.99-2.29c0-0.21-0.03-0.42-0.06-0.65h-7.76v-4.37h14.62v7.1c0,4.37-3.21,5.62-10.11,5.62h-7.34
		c-3.42,0-5.86-0.15-7.73-1.6c-1.81-1.43-2.5-3.39-2.5-6.33V9.45c0-6.48,2.82-8.32,10.2-8.32h7.37c3.78,0,6.36,0.18,7.94,1.4
		c1.4,1.07,1.99,2.85,1.99,5.44c0,0.39,0,0.8-0.03,1.22h-6.63V9.12z"/>
	<polyline class="st0" points="154.58,6.65 154.58,9.92 170.6,9.92 170.6,14.47 154.58,14.47 154.58,17.77 171.85,17.77 171.85,23 
		147.98,23 147.98,1.39 171.58,1.39 171.58,6.65 	"/>
	<polygon class="st0" points="154.58,6.65 154.58,9.92 170.6,9.92 170.6,14.47 154.58,14.47 154.58,17.77 171.85,17.77 171.85,23 
		147.98,23 147.98,1.39 171.58,1.39 171.58,6.65 	"/>
</g>
</svg>
