<?xml version="1.0" encoding="utf-8"?>
<!-- Generator: Adobe Illustrator 26.1.0, SVG Export Plug-In . SVG Version: 6.00 Build 0)  -->
<svg version="1.1" xmlns="http://www.w3.org/2000/svg" xmlns:xlink="http://www.w3.org/1999/xlink" x="0px" y="0px"
	 viewBox="0 0 260.9 262.31" style="enable-background:new 0 0 260.9 262.31;" xml:space="preserve">
<style type="text/css">
	.st0{fill:none;}
</style>
<g id="Layer_2">
</g>
<g id="Sixteen3_Logo">
	<path class="st0" d="M54.57,116.91h-6.52c-0.32,0-0.57,0.25-0.57,0.58v37.01c0,0.3,0.25,0.55,0.57,0.55h6.52
		c0.3,0,0.55-0.25,0.55-0.55v-37.01C55.12,117.15,54.87,116.91,54.57,116.91z"/>
	<path class="st0" d="M54.57,103.03h-6.52c-0.32,0-0.57,0.25-0.57,0.58v7.08c0,0.33,0.25,0.58,0.57,0.58h6.52
		c0.3,0,0.55-0.25,0.55-0.58v-7.08C55.12,103.28,54.87,103.03,54.57,103.03z"/>
	<path class="st0" d="M113.05,116.91h-6.44v-9.75c0-0.31-0.25-0.55-0.55-0.55h-6.55c-0.3,0-0.55,0.25-0.55,0.55v9.75H84.83
		c-0.08,0-0.15,0.03-0.22,0.06c-0.01,0-0.02,0-0.03,0.01c-0.05,0.03-0.09,0.07-0.13,0.11c-0.02,0.02-0.05,0.03-0.08,0.06l-0.04,0.06
		c0,0,0,0,0,0v0l-8.88,12.57l-9.08-12.63c-0.11-0.13-0.28-0.25-0.46-0.25h-7.67c-0.21,0-0.4,0.14-0.5,0.31
		c-0.1,0.19-0.08,0.41,0.04,0.58l12.66,17.66l-13.31,18.71c-0.12,0.17-0.14,0.38-0.04,0.58c0.1,0.2,0.29,0.31,0.5,0.31h7.67
		c0.18,0,0.36-0.08,0.46-0.25l9.43-13.65l9.74,13.65c0.11,0.17,0.28,0.25,0.46,0.25h7.86c0.21,0,0.4-0.11,0.5-0.31
		c0.1-0.19,0.08-0.41-0.04-0.58l-13.65-18.79l9.05-12.41h9.89v24.26c0,3.07,0.68,5.25,2.03,6.44c1.34,1.24,3.58,1.85,6.84,1.85
		c0.77,0,1.56-0.05,2.35-0.17c1.01-0.09,1.99-0.22,2.97-0.39c0.26-0.06,0.46-0.3,0.46-0.55v-5.28c0-0.17-0.06-0.3-0.18-0.41
		c-0.11-0.11-0.26-0.17-0.43-0.14c-0.81,0.05-1.52,0.11-2.1,0.11c-0.53,0.03-0.95,0.03-1.34,0.03c-1.17-0.03-1.96-0.22-2.35-0.64
		c-0.22-0.25-0.59-1-0.59-2.93v-22.19h6.44c0.3,0,0.55-0.25,0.55-0.55v-4.92C113.6,117.15,113.35,116.91,113.05,116.91z"/>
	<path class="st0" d="M32.33,132.27l-6.33-1.44c-2.24-0.5-3.79-1.05-4.57-1.66c-0.72-0.55-1.07-1.35-1.07-2.4
		c0-1.47,0.58-2.54,1.78-3.35c1.26-0.8,3.18-1.22,5.71-1.22c2.48,0,4.48,0.52,5.96,1.52c1.38,0.97,2.13,2.29,2.28,4.12
		c0.03,0.27,0.26,0.5,0.55,0.5h6.34c0.32,0,0.57-0.25,0.57-0.56v-0.13c0-3.62-1.45-6.55-4.32-8.71c-2.71-2.02-4.59-3.18-11.38-3.18
		c-4.64,0-8.36,1-11.02,2.98c-2.74,2.05-4.13,4.81-4.13,8.27c0,2.98,0.87,5.36,2.6,7.05c1.67,1.63,4.64,2.93,8.83,3.89l7.31,1.77
		c2.25,0.52,3.76,1.13,4.48,1.77c0.7,0.64,1.05,1.52,1.05,2.68c0,1.65-0.72,2.93-2.18,3.87c-1.52,0.97-3.66,1.46-6.34,1.46
		c-2.97,0-5.17-0.61-6.72-1.82c-1.53-1.16-2.42-2.93-2.64-5.28c-0.03-0.31-0.28-0.53-0.57-0.53h-6.27c-0.15,0-0.3,0.08-0.4,0.17
		c-0.11,0.11-0.17,0.27-0.17,0.41c0.08,4.37,1.53,7.79,4.31,10.2c2.79,2.32,6.78,3.51,11.87,3.51c5.2,0,9.33-1.11,12.27-3.29
		c2.98-2.29,4.49-5.47,4.49-9.45c0-3.04-0.91-5.44-2.72-7.13C40.12,134.65,36.99,133.32,32.33,132.27z"/>
	<path class="st0" d="M223.53,121.27c-1.15-1.77-2.75-3.07-4.9-4.01c-2.1-0.86-4.66-1.3-7.63-1.3c-2.82,0-5.31,0.55-7.39,1.63
		c-1.7,0.86-3.22,2.07-4.53,3.62v-3.73c0-0.33-0.25-0.58-0.57-0.58h-6.24c-0.3,0-0.55,0.25-0.55,0.58v37.01
		c0,0.3,0.25,0.55,0.55,0.55h6.55c0.3,0,0.55-0.25,0.55-0.55v-21.09c0-3.48,0.97-6.17,2.87-7.96c1.89-1.85,4.61-2.79,8.11-2.79
		c2.72,0,4.56,0.61,5.62,1.88c1.08,1.27,1.62,3.67,1.62,7.16v22.8c0,0.3,0.26,0.55,0.57,0.55h6.62c0.3,0,0.56-0.25,0.56-0.55v-24.02
		c0-2.62-0.15-4.62-0.43-5.89C224.61,123.35,224.15,122.21,223.53,121.27z"/>
	<path class="st0" d="M170.15,115.69c-5.57,0-10.03,1.85-13.25,5.53c-3.16,3.62-4.78,8.73-4.78,15.14c0,6.05,1.63,10.95,4.84,14.51
		c3.2,3.57,7.64,5.36,13.2,5.36c4.67,0,8.64-1.24,11.77-3.65c3.18-2.46,5.07-5.72,5.8-10c0.03-0.14-0.02-0.31-0.13-0.45
		c-0.1-0.14-0.26-0.19-0.43-0.19h-6.45c-0.26,0-0.5,0.17-0.55,0.44c-0.48,2.27-1.55,4.01-3.15,5.22c-1.64,1.22-3.67,1.83-6.26,1.83
		c-3.39,0-5.91-1-7.74-3.01c-1.78-1.94-2.74-4.59-2.89-8.1h27.49c0.27,0,0.51-0.19,0.55-0.47c0.04-0.33,0.08-0.74,0.1-1.16v-1.69
		c0-6.08-1.59-10.86-4.71-14.21C180.36,117.41,175.86,115.69,170.15,115.69z M160.11,132.05c0.35-3.1,1.36-5.47,3-7.08
		c1.78-1.77,4.2-2.65,7.21-2.65c3.18,0,5.65,0.91,7.35,2.68c1.61,1.69,2.46,3.98,2.59,7.05H160.11z"/>
	<path class="st0" d="M131.73,116.24c-5.45,0-9.72,1.79-12.81,5.34c-3.1,3.54-4.66,8.45-4.66,14.78c0,5.97,1.56,10.67,4.7,14.12
		c3.11,3.48,7.36,5.17,12.77,5.17c4.6,0,8.41-1.16,11.44-3.51c3.01-2.35,4.89-5.55,5.58-9.64h-6.45c-0.51,2.4-1.63,4.26-3.36,5.55
		c-1.74,1.3-3.93,1.93-6.59,1.93c-3.48,0-6.22-1.02-8.17-3.2c-1.98-2.13-2.99-5.12-3.05-9.01h28.05c0.06-0.31,0.1-0.72,0.1-1.08
		c0.03-0.33,0.03-0.88,0.03-1.69c0-5.94-1.55-10.56-4.6-13.81C141.66,117.9,137.33,116.24,131.73,116.24z M121.71,132.05
		c0.35-3.1,1.36-5.47,3-7.08c1.78-1.77,4.2-2.65,7.21-2.65c3.18,0,5.65,0.91,7.35,2.68c1.61,1.69,2.46,3.98,2.59,7.05H121.71z"/>
	<path class="st0" d="M113.05,116.91h-6.44v-9.75c0-0.31-0.25-0.55-0.55-0.55h-6.55c-0.3,0-0.55,0.25-0.55,0.55v9.75H84.83
		c-0.08,0-0.15,0.03-0.22,0.06c-0.01,0-0.02,0-0.03,0.01c-0.05,0.03-0.09,0.07-0.13,0.11c-0.02,0.02-0.05,0.03-0.08,0.06l-0.04,0.06
		c0,0,0,0,0,0v0l-8.88,12.57l-9.08-12.63c-0.11-0.13-0.28-0.25-0.46-0.25h-7.67c-0.21,0-0.4,0.14-0.5,0.31
		c-0.1,0.19-0.08,0.41,0.04,0.58l12.66,17.66l-13.31,18.71c-0.12,0.17-0.14,0.38-0.04,0.58c0.1,0.2,0.29,0.31,0.5,0.31h7.67
		c0.18,0,0.36-0.08,0.46-0.25l9.43-13.65l9.74,13.65c0.11,0.17,0.28,0.25,0.46,0.25h7.86c0.21,0,0.4-0.11,0.5-0.31
		c0.1-0.19,0.08-0.41-0.04-0.58l-13.65-18.79l9.05-12.41h9.89v24.26c0,3.07,0.68,5.25,2.03,6.44c1.34,1.24,3.58,1.85,6.84,1.85
		c0.77,0,1.56-0.05,2.35-0.17c1.01-0.09,1.99-0.22,2.97-0.39c0.26-0.06,0.46-0.3,0.46-0.55v-5.28c0-0.17-0.06-0.3-0.18-0.41
		c-0.11-0.11-0.26-0.17-0.43-0.14c-0.81,0.05-1.52,0.11-2.1,0.11c-0.53,0.03-0.95,0.03-1.34,0.03c-1.17-0.03-1.96-0.22-2.35-0.64
		c-0.22-0.25-0.59-1-0.59-2.93v-22.19h6.44c0.3,0,0.55-0.25,0.55-0.55v-4.92C113.6,117.15,113.35,116.91,113.05,116.91z"/>
	<path class="st0" d="M54.57,103.03h-6.52c-0.32,0-0.57,0.25-0.57,0.58v7.08c0,0.33,0.25,0.58,0.57,0.58h6.52
		c0.3,0,0.55-0.25,0.55-0.58v-7.08C55.12,103.28,54.87,103.03,54.57,103.03z"/>
	<path class="st0" d="M32.33,132.27l-6.33-1.44c-2.24-0.5-3.79-1.05-4.57-1.66c-0.72-0.55-1.07-1.35-1.07-2.4
		c0-1.47,0.58-2.54,1.78-3.35c1.26-0.8,3.18-1.22,5.71-1.22c2.48,0,4.48,0.52,5.96,1.52c1.38,0.97,2.13,2.29,2.28,4.12
		c0.03,0.27,0.26,0.5,0.55,0.5h6.34c0.32,0,0.57-0.25,0.57-0.56v-0.13c0-3.62-1.45-6.55-4.32-8.71c-2.71-2.02-4.59-3.18-11.38-3.18
		c-4.64,0-8.36,1-11.02,2.98c-2.74,2.05-4.13,4.81-4.13,8.27c0,2.98,0.87,5.36,2.6,7.05c1.67,1.63,4.64,2.93,8.83,3.89l7.31,1.77
		c2.25,0.52,3.76,1.13,4.48,1.77c0.7,0.64,1.05,1.52,1.05,2.68c0,1.65-0.72,2.93-2.18,3.87c-1.52,0.97-3.66,1.46-6.34,1.46
		c-2.97,0-5.17-0.61-6.72-1.82c-1.53-1.16-2.42-2.93-2.64-5.28c-0.03-0.31-0.28-0.53-0.57-0.53h-6.27c-0.15,0-0.3,0.08-0.4,0.17
		c-0.11,0.11-0.17,0.27-0.17,0.41c0.08,4.37,1.53,7.79,4.31,10.2c2.79,2.32,6.78,3.51,11.87,3.51c5.2,0,9.33-1.11,12.27-3.29
		c2.98-2.29,4.49-5.47,4.49-9.45c0-3.04-0.91-5.44-2.72-7.13C40.12,134.65,36.99,133.32,32.33,132.27z"/>
	<path class="st0" d="M54.57,116.91h-6.52c-0.32,0-0.57,0.25-0.57,0.58v37.01c0,0.3,0.25,0.55,0.57,0.55h6.52
		c0.3,0,0.55-0.25,0.55-0.55v-37.01C55.12,117.15,54.87,116.91,54.57,116.91z"/>
	<path class="st0" d="M131.73,116.24c-5.45,0-9.72,1.79-12.81,5.34c-3.1,3.54-4.66,8.45-4.66,14.78c0,5.97,1.56,10.67,4.7,14.12
		c3.11,3.48,7.36,5.17,12.77,5.17c4.6,0,8.41-1.16,11.44-3.51c3.01-2.35,4.89-5.55,5.58-9.64h-6.45c-0.51,2.4-1.63,4.26-3.36,5.55
		c-1.74,1.3-3.93,1.93-6.59,1.93c-3.48,0-6.22-1.02-8.17-3.2c-1.98-2.13-2.99-5.12-3.05-9.01h28.05c0.06-0.31,0.1-0.72,0.1-1.08
		c0.03-0.33,0.03-0.88,0.03-1.69c0-5.94-1.55-10.56-4.6-13.81C141.66,117.9,137.33,116.24,131.73,116.24z M121.71,132.05
		c0.35-3.1,1.36-5.47,3-7.08c1.78-1.77,4.2-2.65,7.21-2.65c3.18,0,5.65,0.91,7.35,2.68c1.61,1.69,2.46,3.98,2.59,7.05H121.71z"/>
	<path class="st0" d="M223.53,121.27c-1.15-1.77-2.75-3.07-4.9-4.01c-2.1-0.86-4.66-1.3-7.63-1.3c-2.82,0-5.31,0.55-7.39,1.63
		c-1.7,0.86-3.22,2.07-4.53,3.62v-3.73c0-0.33-0.25-0.58-0.57-0.58h-6.24c-0.3,0-0.55,0.25-0.55,0.58v37.01
		c0,0.3,0.25,0.55,0.55,0.55h6.55c0.3,0,0.55-0.25,0.55-0.55v-21.09c0-3.48,0.97-6.17,2.87-7.96c1.89-1.85,4.61-2.79,8.11-2.79
		c2.72,0,4.56,0.61,5.62,1.88c1.08,1.27,1.62,3.67,1.62,7.16v22.8c0,0.3,0.26,0.55,0.57,0.55h6.62c0.3,0,0.56-0.25,0.56-0.55v-24.02
		c0-2.62-0.15-4.62-0.43-5.89C224.61,123.35,224.15,122.21,223.53,121.27z"/>
	<path class="st0" d="M170.15,115.69c-5.57,0-10.03,1.85-13.25,5.53c-3.16,3.62-4.78,8.73-4.78,15.14c0,6.05,1.63,10.95,4.84,14.51
		c3.2,3.57,7.64,5.36,13.2,5.36c4.67,0,8.64-1.24,11.77-3.65c3.18-2.46,5.07-5.72,5.8-10c0.03-0.14-0.02-0.31-0.13-0.45
		c-0.1-0.14-0.26-0.19-0.43-0.19h-6.45c-0.26,0-0.5,0.17-0.55,0.44c-0.48,2.27-1.55,4.01-3.15,5.22c-1.64,1.22-3.67,1.83-6.26,1.83
		c-3.39,0-5.91-1-7.74-3.01c-1.78-1.94-2.74-4.59-2.89-8.1h27.49c0.27,0,0.51-0.19,0.55-0.47c0.04-0.33,0.08-0.74,0.1-1.16v-1.69
		c0-6.08-1.59-10.86-4.71-14.21C180.36,117.41,175.86,115.69,170.15,115.69z M160.11,132.05c0.35-3.1,1.36-5.47,3-7.08
		c1.78-1.77,4.2-2.65,7.21-2.65c3.18,0,5.65,0.91,7.35,2.68c1.61,1.69,2.46,3.98,2.59,7.05H160.11z"/>
	<g>
		<path d="M170.33,122.33c-3.01,0-5.43,0.88-7.21,2.65c-1.64,1.61-2.65,3.98-3,7.08h20.15c-0.12-3.07-0.98-5.36-2.59-7.05
			C175.98,123.24,173.5,122.33,170.33,122.33z"/>
		<path d="M131.92,122.32c-3.01,0-5.43,0.88-7.21,2.65c-1.64,1.61-2.65,3.98-3,7.08h20.15c-0.12-3.07-0.98-5.36-2.59-7.05
			C137.57,123.24,135.1,122.32,131.92,122.32z"/>
		<path d="M259.18,152.03c-3.48,2.93-8.17,4.42-13.91,4.42c-5.42,0-9.81-1.55-13.06-4.64c-3.23-3.1-4.88-7.27-4.88-12.39v-0.36
			c0-0.3,0.25-0.55,0.55-0.55h6.77c0.29,0,0.54,0.22,0.55,0.53c0.09,3.32,1.05,5.89,2.83,7.68c1.84,1.8,4.37,2.66,7.73,2.66
			c3.22,0,5.79-0.83,7.63-2.46c1.84-1.63,2.72-3.81,2.72-6.71c0-2.57-0.88-4.56-2.64-5.94c-1.84-1.44-4.35-2.16-7.71-2.16
			c-0.65,0-1.71,0.03-3.47,0.11l-0.19,0.03c-0.17,0.03-0.32,0-0.46-0.11c-0.13-0.11-0.19-0.27-0.19-0.44l0.04-5.58
			c0-0.17,0.07-0.33,0.19-0.42c0.13-0.11,0.29-0.17,0.44-0.13c0.14,0,0.29,0.03,0.44,0.03c0.17,0,0.35,0.03,0.51,0.05l1.18-0.03
			c3.61,0,6.2-0.55,7.74-1.69c1.49-1.1,2.23-2.87,2.23-5.39c0-2.32-0.71-4.03-2.14-5.28c-1.46-1.24-3.62-1.88-6.4-1.88
			c-3.16,0-5.47,0.8-7.06,2.46c-1.57,1.66-2.36,4.17-2.36,7.44c0,0.31-0.25,0.55-0.57,0.55h-6.62c-0.3,0-0.55-0.25-0.55-0.55v-0.33
			c0-5,1.53-9.04,4.57-12.02c3-2.96,7.09-4.45,12.18-4.45c5.4,0,9.66,1.19,12.64,3.59c1.22,0.96,2.19,2.12,2.93,3.44
			C251.35,48.39,196.91,0,131.15,0C58.72,0,0,58.7,0,131.14c0,72.43,58.72,131.16,131.15,131.16c65.94,0,120.49-48.66,129.75-112.01
			C260.38,150.91,259.82,151.5,259.18,152.03z M40.13,152.89c-2.94,2.18-7.08,3.29-12.27,3.29c-5.08,0-9.08-1.19-11.87-3.51
			c-2.78-2.4-4.23-5.83-4.31-10.2c0-0.14,0.06-0.3,0.17-0.41c0.1-0.09,0.25-0.17,0.4-0.17h6.27c0.29,0,0.54,0.22,0.57,0.53
			c0.22,2.35,1.11,4.11,2.64,5.28c1.55,1.22,3.75,1.82,6.72,1.82c2.68,0,4.82-0.49,6.34-1.46c1.46-0.94,2.18-2.21,2.18-3.87
			c0-1.16-0.35-2.05-1.05-2.68c-0.72-0.63-2.22-1.24-4.48-1.77l-7.31-1.77c-4.19-0.97-7.16-2.27-8.83-3.89
			c-1.73-1.69-2.6-4.06-2.6-7.05c0-3.46,1.4-6.22,4.13-8.27c2.67-1.99,6.38-2.98,11.02-2.98c6.79,0,8.67,1.16,11.38,3.18
			c2.87,2.15,4.32,5.08,4.32,8.71v0.13c0,0.31-0.25,0.56-0.57,0.56h-6.34c-0.29,0-0.52-0.22-0.55-0.5c-0.15-1.83-0.9-3.15-2.28-4.12
			c-1.48-1-3.48-1.52-5.96-1.52c-2.53,0-4.45,0.42-5.71,1.22c-1.2,0.8-1.78,1.88-1.78,3.35c0,1.05,0.35,1.85,1.07,2.4
			c0.79,0.61,2.33,1.16,4.57,1.66l6.33,1.44c4.66,1.05,7.78,2.38,9.56,4.03c1.81,1.69,2.72,4.09,2.72,7.13
			C44.62,147.42,43.11,150.6,40.13,152.89z M55.12,154.49c0,0.3-0.25,0.55-0.55,0.55h-6.52c-0.32,0-0.57-0.25-0.57-0.55v-37.01
			c0-0.33,0.25-0.58,0.57-0.58h6.52c0.3,0,0.55,0.25,0.55,0.58V154.49z M55.12,110.69c0,0.33-0.25,0.58-0.55,0.58h-6.52
			c-0.32,0-0.57-0.25-0.57-0.58v-7.08c0-0.33,0.25-0.58,0.57-0.58h6.52c0.3,0,0.55,0.25,0.55,0.58V110.69z M113.6,122.41
			c0,0.3-0.25,0.55-0.55,0.55h-6.44v22.19c0,1.93,0.37,2.68,0.59,2.93c0.39,0.42,1.18,0.61,2.35,0.64c0.39,0,0.82,0,1.34-0.03
			c0.58,0,1.29-0.06,2.1-0.11c0.17-0.03,0.32,0.03,0.43,0.14c0.12,0.11,0.18,0.25,0.18,0.41v5.28c0,0.25-0.19,0.49-0.46,0.55
			c-0.98,0.17-1.96,0.3-2.97,0.39c-0.79,0.11-1.58,0.17-2.35,0.17c-3.26,0-5.5-0.61-6.84-1.85c-1.36-1.19-2.03-3.37-2.03-6.44
			v-24.26h-9.89l-9.05,12.41l13.65,18.79c0.12,0.17,0.14,0.38,0.04,0.58c-0.1,0.2-0.29,0.31-0.5,0.31h-7.86
			c-0.18,0-0.35-0.08-0.46-0.25l-9.74-13.65l-9.43,13.65c-0.1,0.17-0.28,0.25-0.46,0.25h-7.67c-0.21,0-0.4-0.11-0.5-0.31
			c-0.1-0.19-0.08-0.41,0.04-0.58l13.31-18.71l-12.66-17.66c-0.13-0.17-0.14-0.39-0.04-0.58c0.09-0.17,0.29-0.31,0.5-0.31h7.67
			c0.18,0,0.35,0.11,0.46,0.25l9.08,12.63l8.88-12.57v0c0,0,0,0,0,0l0.04-0.06c0.02-0.03,0.05-0.04,0.08-0.06
			c0.04-0.04,0.08-0.08,0.13-0.11c0.01,0,0.02,0,0.03-0.01c0.07-0.03,0.14-0.06,0.22-0.06h14.12v-9.75c0-0.31,0.25-0.55,0.55-0.55
			h6.55c0.3,0,0.55,0.25,0.55,0.55v9.75h6.44c0.3,0,0.55,0.25,0.55,0.58V122.41z M149.86,136.7c-0.01,0.41-0.06,0.83-0.1,1.16
			c-0.04,0.28-0.28,0.47-0.55,0.47h-27.49c0.15,3.51,1.11,6.16,2.89,8.1c1.83,2.02,4.35,3.01,7.74,3.01c2.58,0,4.61-0.61,6.26-1.83
			c1.6-1.21,2.67-2.96,3.15-5.22c0.05-0.27,0.29-0.44,0.55-0.44h6.45c0.17,0,0.33,0.05,0.43,0.19c0.11,0.14,0.15,0.3,0.13,0.45
			c-0.73,4.28-2.63,7.54-5.8,10c-3.14,2.4-7.1,3.65-11.77,3.65c-5.56,0-9.99-1.79-13.2-5.36c-3.21-3.56-4.84-8.45-4.84-14.51
			c0-6.41,1.62-11.53,4.78-15.14c3.22-3.67,7.68-5.53,13.25-5.53c5.71,0,10.21,1.71,13.4,5.11c3.12,3.34,4.71,8.13,4.71,14.21V136.7
			z M188.27,136.7c-0.01,0.41-0.06,0.83-0.1,1.16c-0.04,0.28-0.28,0.47-0.55,0.47h-27.49c0.15,3.51,1.11,6.16,2.89,8.1
			c1.83,2.02,4.35,3.01,7.74,3.01c2.58,0,4.61-0.61,6.26-1.83c1.6-1.21,2.67-2.96,3.15-5.22c0.05-0.27,0.29-0.44,0.55-0.44h6.45
			c0.17,0,0.33,0.05,0.43,0.19c0.11,0.14,0.15,0.3,0.13,0.45c-0.73,4.28-2.63,7.54-5.8,10c-3.14,2.4-7.1,3.65-11.77,3.65
			c-5.56,0-9.99-1.79-13.2-5.36c-3.21-3.56-4.84-8.45-4.84-14.51c0-6.41,1.62-11.53,4.78-15.14c3.22-3.67,7.68-5.53,13.25-5.53
			c5.71,0,10.21,1.71,13.4,5.11c3.12,3.34,4.71,8.13,4.71,14.21V136.7z M225.34,154.49c0,0.3-0.26,0.55-0.56,0.55h-6.62
			c-0.31,0-0.57-0.25-0.57-0.55v-22.8c0-3.48-0.54-5.89-1.62-7.16c-1.06-1.28-2.9-1.88-5.62-1.88c-3.5,0-6.22,0.94-8.11,2.79
			c-1.91,1.79-2.87,4.48-2.87,7.96v21.09c0,0.3-0.25,0.55-0.55,0.55h-6.55c-0.3,0-0.55-0.25-0.55-0.55v-37.01
			c0-0.33,0.25-0.58,0.55-0.58h6.24c0.32,0,0.57,0.25,0.57,0.58v3.73c1.31-1.55,2.83-2.76,4.53-3.62c2.09-1.08,4.58-1.63,7.39-1.63
			c2.97,0,5.53,0.44,7.63,1.3c2.16,0.94,3.76,2.24,4.9,4.01c0.62,0.94,1.08,2.07,1.38,3.32c0.28,1.27,0.43,3.26,0.43,5.89V154.49z"
			/>
	</g>
</g>
</svg>
