<svg width="209" height="30" viewBox="0 0 209 30" fill="none" xmlns="http://www.w3.org/2000/svg">
<path d="M192.852 22.9383C192.852 26.7485 195.939 29.7284 200.808 29.7284C205.676 29.7284 209 27.2943 209 23.367C209 20.3829 207.337 18.8898 204.054 18.1432L200.532 17.3193C198.869 16.9261 197.998 16.2193 197.998 15.1194C197.998 13.666 199.107 12.8023 201.006 12.8023C202.905 12.8023 203.973 13.8625 204.013 15.5125H208.604C208.564 11.7421 205.596 9.22845 201.202 9.22845C196.808 9.22845 193.444 11.5058 193.444 15.3159C193.444 18.4193 195.147 20.0671 198.669 20.8534L202.19 21.6773C203.931 22.0705 204.448 22.7773 204.448 23.7581C204.448 25.1717 203.221 26.0751 200.964 26.0751C198.707 26.0751 197.482 24.6259 197.442 22.9362H192.852V22.9383ZM180.94 13.1557C183.829 13.1557 185.69 14.9228 185.69 17.5932H175.875C176.349 14.6865 178.092 13.1557 180.942 13.1557H180.94ZM181.058 29.7284C186.164 29.7284 189.726 27.1751 190.557 22.9342H186.084C185.53 24.7807 183.789 25.8012 181.138 25.8012C177.932 25.8012 176.111 24.0739 175.755 20.6568L190.479 20.6171V19.1637C190.479 13.116 186.759 9.22845 180.9 9.22845C175.041 9.22845 171.163 13.4297 171.163 19.5171C171.163 25.6046 175.239 29.7284 181.058 29.7284ZM162.496 29.2182H167.325V9.81817H162.496V29.2182ZM127.919 19.4795C127.919 15.9454 130.215 13.5489 133.54 13.5489C136.866 13.5489 139.161 15.9454 139.161 19.4795C139.161 23.0136 136.866 25.4101 133.54 25.4101C130.215 25.4101 127.919 23.0136 127.919 19.4795ZM123.091 19.4795C123.091 25.5272 127.483 29.6908 133.54 29.6908C139.597 29.6908 143.99 25.5272 143.99 19.4795C143.99 13.4318 139.595 9.26818 133.54 9.26818C127.485 9.26818 123.091 13.4318 123.091 19.4795ZM117.038 29.2182V13.8228H121.576V9.81817H117.038V2.01382L112.21 3.77043V9.81817H109.187V13.8228H112.21V29.2182H117.038ZM91.296 22.9091C91.296 26.7192 94.3836 29.7284 99.2521 29.7284C104.121 29.7284 107.444 27.2943 107.444 23.367C107.444 20.3829 105.781 18.8898 102.498 18.1432L98.976 17.3193C97.3132 16.9261 96.4427 16.2193 96.4427 15.1194C96.4427 13.666 97.5513 12.8023 99.4502 12.8023C101.349 12.8023 102.418 13.8625 102.458 15.5125H107.048C107.008 11.7421 104.041 9.22845 99.6463 9.22845C95.252 9.22845 91.8883 11.5058 91.8883 15.3159C91.8883 18.4193 93.5912 20.0671 97.1129 20.8534L100.635 21.6773C102.376 22.0705 102.89 22.7773 102.89 23.7581C102.89 25.1717 101.663 26.0751 99.406 26.0751C97.1488 26.0751 95.9222 24.5967 95.8842 22.907H91.2939L91.296 22.9091ZM76.0351 29.2182V23.9944L78.8845 21.05L83.9912 29.2182H89.532L82.2503 17.5159L89.6922 9.81817H83.6371L76.0372 17.9466V0H71.2488V29.2182H76.0372H76.0351ZM36.2946 19.4795C36.2946 15.9454 38.5897 13.5489 41.9155 13.5489C45.2413 13.5489 47.5364 15.9454 47.5364 19.4795C47.5364 23.0136 45.2413 25.4101 41.9155 25.4101C38.5897 25.4101 36.2946 23.0136 36.2946 19.4795ZM31.4661 19.4795C31.4661 25.5272 35.8583 29.6908 41.9155 29.6908C47.9727 29.6908 52.3649 25.5272 52.3649 19.4795C52.3649 13.4318 47.9706 9.26818 41.9155 9.26818C35.8604 9.26818 31.4661 13.4318 31.4661 19.4795ZM6.33327 29.2182H11.0437L13.7351 20.8931C14.7235 17.7124 15.0797 16.3385 15.2778 15.4351C15.4359 16.418 15.8722 18.2624 16.6625 20.8158L19.3539 29.2203H23.8662L30.6336 9.82026H25.527L22.9157 18.1453C22.5595 19.3624 21.9251 21.6794 21.609 23.1328C21.3708 21.8363 20.5805 18.9316 20.3423 18.1453L17.731 9.82026H12.8225L10.1311 18.1453C9.49885 20.0692 9.14056 21.2863 8.78438 23.1725C8.4282 21.3658 8.03198 19.6782 7.59782 18.1453L5.02446 9.82026H0L6.33327 29.2203V29.2182Z" fill="white"/>
<path d="M61.6614 11.1294C61.4633 11.2925 61.2441 11.4932 61.0628 11.6794V9.85793H56.2344V29.2182H61.0628V18.9735C61.0628 17.8317 61.7162 16.0541 62.9618 15.1236C64.3759 14.0675 66.492 14.0131 68.1485 14.4439V9.77847C66.0093 9.01727 63.3706 9.71782 61.6614 11.1315V11.1294Z" fill="white"/>
<path d="M152.758 11.1294C152.559 11.2925 152.34 11.4932 152.159 11.6794V9.85793H147.331V29.2182H152.159V18.9735C152.159 17.8317 152.812 16.0541 154.058 15.1236C155.472 14.0675 157.588 14.0131 159.245 14.4439V9.77847C157.106 9.01727 154.467 9.71782 152.758 11.1315V11.1294Z" fill="white"/>
<path d="M167.326 3.96277H162.497V7.86285H167.326V3.96277Z" fill="white"/>
</svg>
