<svg xmlns="http://www.w3.org/2000/svg" id="Layer_1" data-name="Layer 1" viewBox="0 0 865.27 865.42"><defs><style>      .cls-1 {        fill: #fff;      }      .cls-2 {        stroke-width: 12px;      }      .cls-2, .cls-3, .cls-4 {        fill: none;        stroke: #000;        stroke-miterlimit: 10;      }      .cls-3 {        stroke-width: 15px;      }      .cls-4 {        stroke-width: 14px;      }    </style></defs><path class="cls-3" d="M361.87,857.77H118.66c-7.3.11-46.24-.05-78.06-31.04-32.24-31.4-33.08-70.97-33.1-78.11V116.65c.11-7.05,1.57-51.38,38.32-82.88C74.63,9.08,107.25,7.6,116.65,7.5h631.97c8.32.06,44.13,1.23,74.33,29.4,33.74,31.47,34.76,72.65,34.82,79.75v631.97c-.04,6.9-.99,48.7-35.55,80.42-33.48,30.73-73.57,29.13-80.68,28.73-79.5-.07-159-.14-238.5-.21"></path><line class="cls-3" x1="7.5" y1="242.39" x2="332.5" y2="242.39"></line><line class="cls-3" x1="402.77" y1="242.39" x2="499" y2="242.39"></line><line class="cls-3" x1="568.33" y1="242.39" x2="857.75" y2="242.39"></line><line class="cls-3" x1="273.07" y1="441.48" x2="273.07" y2="242.39"></line><line class="cls-3" x1="14.21" y1="538.23" x2="273.07" y2="538.23"></line><line class="cls-3" x1="625.31" y1="523.18" x2="857.75" y2="523.18"></line><line class="cls-3" x1="444.8" y1="242.39" x2="444.8" y2="7.5"></line><line class="cls-3" x1="627.98" y1="432.63" x2="627.98" y2="753.06"></line><line class="cls-3" x1="627.98" y1="822.76" x2="627.98" y2="865.28"></line><line class="cls-3" x1="627.98" y1="242.39" x2="627.98" y2="296.3"></line><line class="cls-3" x1="273.07" y1="683.45" x2="273.07" y2="507"></line><line class="cls-3" x1="273.07" y1="857.77" x2="273.07" y2="805.01"></line><path class="cls-2" d="M433.01,864.78c0-41.08,29.27-74.32,65.45-74.32"></path><line class="cls-2" x1="503.03" y1="865.03" x2="503.03" y2="784.47"></line><path class="cls-2" d="M432.46,864.78c0-41.08-29.27-74.32-65.45-74.32"></path><line class="cls-2" x1="362.34" y1="865.28" x2="362.34" y2="784.47"></line><path class="cls-2" d="M568.33,249.91c0-41.24-29.39-74.61-65.7-74.61"></path><line class="cls-2" x1="498.05" y1="249.87" x2="498.05" y2="169.31"></line><path class="cls-2" d="M332.5,249.91c0-41.24,29.39-74.61,65.7-74.61"></path><line class="cls-2" x1="402.77" y1="249.87" x2="402.77" y2="169.31"></line><path class="cls-2" d="M620.68,752.74c41.08,0,74.32,29.27,74.32,65.45"></path><line class="cls-2" x1="620.43" y1="822.76" x2="700.99" y2="822.76"></line><rect class="cls-1" x="181.19" y="3.59" width="57.69" height="7.82" transform="translate(420.07 15) rotate(180)"></rect><rect class="cls-1" x="336.5" y="3.59" width="57.69" height="7.82" transform="translate(730.7 15) rotate(180)"></rect><rect class="cls-1" x="499.51" y="3.59" width="57.69" height="7.82" transform="translate(1056.7 15) rotate(180)"></rect><rect class="cls-1" x="654.82" y="3.59" width="57.69" height="7.82" transform="translate(1367.33 15) rotate(180)"></rect><rect class="cls-1" x="-21.34" y="623.51" width="57.69" height="7.82" transform="translate(634.92 619.92) rotate(90)"></rect><rect class="cls-1" x="-21.34" y="468.19" width="57.69" height="7.82" transform="translate(479.61 464.61) rotate(90)"></rect><rect class="cls-1" x="-21.34" y="305.19" width="57.69" height="7.82" transform="translate(316.6 301.6) rotate(90)"></rect><rect class="cls-1" x="-21.34" y="149.88" width="57.69" height="7.82" transform="translate(161.29 146.29) rotate(90)"></rect><rect class="cls-1" x="828.91" y="623.51" width="57.69" height="7.82" transform="translate(1485.17 -230.33) rotate(90)"></rect><rect class="cls-1" x="828.91" y="468.19" width="57.69" height="7.82" transform="translate(1329.86 -385.65) rotate(90)"></rect><rect class="cls-1" x="828.91" y="305.19" width="57.69" height="7.82" transform="translate(1166.85 -548.65) rotate(90)"></rect><rect class="cls-1" x="828.91" y="149.88" width="57.69" height="7.82" transform="translate(1011.54 -703.96) rotate(90)"></rect><path class="cls-2" d="M280.57,436.74c-41.23,0-74.6,29.38-74.6,65.69"></path><line class="cls-2" x1="280.55" y1="507" x2="199.99" y2="507"></line><circle class="cls-4" cx="627.98" cy="432.63" r=".57"></circle><circle class="cls-4" cx="627.98" cy="296.3" r=".57"></circle><circle class="cls-4" cx="273.07" cy="682.87" r=".57"></circle><circle class="cls-4" cx="273.07" cy="805.01" r=".57"></circle></svg>